<?xml version="1.0" encoding="utf-8"?>
<!-- Generator: Adobe Illustrator 24.0.1, SVG Export Plug-In . SVG Version: 6.00 Build 0)  -->
<svg version="1.1" id="Layer_1" xmlns:v="https://svgstorm.com"
	 xmlns="http://www.w3.org/2000/svg" xmlns:xlink="http://www.w3.org/1999/xlink" x="0px" y="0px" viewBox="0 0 1024 1024"
	 style="enable-background:new 0 0 1024 1024;" xml:space="preserve">
<style type="text/css">
	.st0{fill:#6280AF;}
</style>
<g>
	<path class="st0" d="M658.2,300.6c-2.8,10.9,2.4,24.5,13.3,13.3c14.8-7.1,32.5-26.4,48.6-11.2c29.7,17.8,59.7,35.3,89,54
		c10.9,8.4,12.6-7.9,15.1-15.1c17.4-65.5,34.3-131.2,54.1-195.9c1.3-8.8,9.3-18.9,4.9-27.1c-107.9,25.8-218.8,40.9-327,66
		c-6.7,2-26.7,1.4-16.3,12.2c21.9,14.3,44.8,26.9,68,39c7.3,5.3,19.3,6.9,17.3,18.7c5.2,19.5,6.7,40.1,12.7,59.3
		C646.1,314.9,650.4,303,658.2,300.6 M841.2,136.6c-70.3,36-141.6,71.2-214.1,102.9c-26.4-15.6-56.1-28.8-79.9-46.9
		C644.3,171.5,744.1,153,841.2,136.6 M874.2,136.6c-16.3,56.9-34.1,113.4-48,171c-5.9,13.4-5,29.6-13.3,41.7
		c-47.1-24.3-91.5-56.1-138.8-80.8C740.5,224.6,806.6,178.6,874.2,136.6 M843.2,145.6c-45.3,34.9-95,63.8-141.2,97.8
		c-11.7,8.4-27,13.6-36.7,23.3c1.7,17.2-10.7,27.3-23.1,36.9c-5.3-19-8.2-38.6-12-58C702,213.6,770.5,175.2,843.2,145.6
		 M701.2,289.6c-11.3,7.4-24.8,12.7-36,21c-0.9-12.6,4.4-23.7,5-36C681.4,277,690,286.6,701.2,289.6z"/>
</g>
<g>
	<path class="st0" d="M753.2,199.6c-35.6,16.8-73,33.1-104,58C683.2,238.1,721.1,222.7,753.2,199.6z"/>
</g>
<g>
	<path class="st0" d="M647.2,265.6c-4.4,8.6-1,23-2,32C649,287.7,646.3,275.6,647.2,265.6z"/>
</g>
<g>
	<path class="st0" d="M533.2,288.6c-42.9,12.7-85.4,27-127.9,41.1c-14.7,0.8-2,11.5,5.7,12.1c8.7,3.1,17.8,5.2,27.2,5.8
		c4.1,7.9,7.8,16,10.8,24.2c7.8,4.4,15.5-5.9,22.5-9c7.1-8.9,17.3-0.2,25.8,0.8c5.5-13.1,10.9-26.1,17.1-38.9
		C519.5,312,532.9,303.2,533.2,288.6 M512.2,299.6c-21.2,13-43.1,25.6-64.7,38.3c-12.4,9.7-27-0.7-40.3-2.3
		c14.5-8.8,34.6-12,51.2-18.8C476.7,312.1,494.3,305.3,512.2,299.6 M525.2,300.6c-12.3,17.1-21.6,36.6-30.2,55.8
		c-10.2,0.7-22.3-6.1-32.8-7.8C484,333.7,503,314.6,525.2,300.6 M505.2,309.6c-16.2,12.7-33.8,29-53,38c-1,6.1,3.4,13-1,18
		c-2.9-6.6-4.5-13.6-8-20C464.7,335,483.7,320.3,505.2,309.6 M473.2,356.6c-4.3,5.2-11,7.5-16,12c0.9-5.1,3-9.9,4-15
		C465.6,353.4,469.2,355.6,473.2,356.6z"/>
</g>
<g>
	<path class="st0" d="M588.2,292.6c-5-1.7-8.5,3.6-5.2,7.2C588.1,303.4,590.7,296.3,588.2,292.6z"/>
</g>
<g>
	<path class="st0" d="M216.2,486.6c0.1-19.6,20.4-30,29.2-45.8c12.8-13.5,14.2-34.6,32.5-42.5c14.2-11.1,24.1-26.8,31.5-42.5
		c9.3-16.5,1.7-46.3-19.5-46.5c-15.5,8.2-25.1,23.6-38.4,35.6c-29.7,20.8-48.3,51.6-71.5,78.5c-33.3,26-29.9,70-43.8,105.2
		c-9.2,40.2-35.3,76.7-26,121c5.8,45.2,11.8,91.6,9,138c1.2,40.7-23,74.5-41,108c15.9-11.2,23.8-32.8,33.1-49.9
		c30.4-67.5,7.9-143.6,3.9-215.1c0.7-46.3,27.6-85.3,35.1-129.9c7.2-20.3,6.5-44.5,21.7-61.3c28.3-27.3,45.7-64.2,79.2-85.8
		c17.4-7.4,38.1-18.7,44.1-37.9c4.6-0.8,8.3,4,9,8c-2.9-1-5.9-4.5-9-2c4.2,2.6,12.5,3.5,11,11c-3.7-1.5-8.2-6.4-12-4
		c4,5.2,16.2,3.1,13,13c-5.8-1.6-10.9-5.5-17-6c1,6.3,10.8,6.3,16,8c-0.3,2.7,0.7,5.7-1,8c-6.1-2.3-12-5.3-18-8
		c-2.2,7.6,11.7,7.7,17,10c-0.2,2.6-2,4.6-3,7c-6.6-3.8-14-6.1-21-9c1.9,7.7,13.2,8.6,20,10c-0.4,3-2.3,5.5-4,8
		c-7.2-3.5-15.2-9.9-23-9c5.8,5.5,14,9.1,22,10c-5.2,14.7-20.3-4.9-29-3c5.8,6.2,14.3,10.9,23,11c-0.3,3.1-3.7,5.1-6,7
		c-7.8-3.4-15.8-8.4-24-11c4.2,7.7,15,10,23,12c-1,2.4-3.9,3.6-5,6c-9.1-1.7-16.3-8.3-25-11c3.1,8.3,14.1,10.4,22,12
		c-7.5,14-19.4-4.6-29-2c4.2,5.7,11.7,7.9,18,10c-1,1.8-2.9,3.4-4,5c-7.4-1.7-14-5.2-20-10c-0.5,7.1,12.3,10,18,13c-0.1,3-2.9,5-3,8
		c-5.5-2.8-10.3-9.4-17-11c1.5,6.6,9.8,9,15,12c-1.4,13.7-14.1-4.2-21-5c2.1,6.4,11,10.1,17,13c-3.9,12-15.6-4.8-23-5
		c2.3,6.4,11.5,10.1,18,12c0.2,2.9-2.9,4.3-3,7c-7.9-2.1-13.4-9.3-21-12c1.7,8,12.6,8.8,18,14c-5.1,11.4-15.5-4.3-23-6
		c-0.9,7.4,11.5,9.9,17,13c-5.2,11.9-15.7-4.6-24-4c2.1,6.8,12.1,7.7,18,11c-4.4,12.7-16.1-4.3-23-1c4.4,4.1,10.7,6,16,9
		c-4.8,9.3-15.1-4.5-23-3c2,7.2,11.9,7.7,18,10c-0.6,13.2-21.1-7.7-23,3c6.6,2,22.8,1.4,20,11c-7.2-0.2-15.4-3.8-22-2
		c6.1,6.2,24.3-0.8,22,12c-7.8,1.6-18.5-5.3-24,0c7,5.5,27-3.2,24,11c-8.8,0-17.4-1.1-26-2c4.1,6.7,17.7,3.9,26,5
		c-0.7,2.6-1.4,5.1-1,8c-8.3-2-17.6-0.4-26-2c4.9,6.3,17.2,2.7,25,5c0.9,13.7-17.6,2.8-26,6c4.2,6.6,16.6,1.3,24,3
		c1.9,16-21.4,0.3-25,10c7.8-0.2,14.5,0.8,22,0c-0.6,11.8-17.5,6-25,8c5.3,5.3,15.2,2.8,22,2c-2.4,10.3-16.5,8-24,9
		c5.8,3.7,14.9,1.4,22,0c1.1,11.5-15.2,9.1-22,11c11.7,5.4,28.2-12.7,33.2,5.8c11.1,24.8,13.2,55.8,5.8,82.2
		c12.1-10.4,5.1-29.5,7-44c0.2-13.9-6.7-27.8-8-40c20.2,26.3,16.4,63.8,13,94c9.1-29.7,7.9-66.7-9-93c14.5,7.8,17.2,27.4,21,42
		c3.1,18.5-1.5,38.2-3,55c10.1-21.2,4.6-48.9,4-71c5,9,5.1,19.8,10,29c1-3.6-0.4-9.8-2-14c6.4,3.3,14.4,7.4,17.2,14.8
		c1.7,7,11.9,12.9,6.8,20.2c-8.4-3.6-9.3-15.1-15-20c0.9,9.5,15.5,18.2,8,27c-4-1.6-3.5-7.1-7-9c2.8,7.1,5.7,13.2-2.1,18.9
		c-3.8,5.4-9.7,9.2-14.9,13.1c-25-19.3-49.6-40.5-81-47c6.8,6,18.4,8.7,27,15c9.2,3.4,17.3,10,25,16c-9.7-1.4-17.6-8.1-26.8-11.2
		c-8.4-2.9-19.8-9.1-27.1-6.9c24.3,11.1,54.4,17.5,74.9,37.1c-23.3-8.8-46.3-20.9-71-26c18.7,10.9,43.2,15.8,64,25
		c-15.6,2.4-31.6-5.8-46.9-9.1c-6.1,0.2-18.2-9.3-20.1-0.9c24.9,1.9,46.8,15.9,73,13c-20.9,11.4-46.8-1.6-69-4
		c6.3,7.2,19.7,5.9,29,9c9.8,3.4,23.5,0.5,31,4c-18,7.2-38.9,3.6-57-1c1.2,7.6,15.2,2.3,21.8,6.2c7.8,3.4,17.9,0.4,25.2,1.8
		c-11,4.4-21,12-31,18c33.7-10.2,64.2-31.6,87.8-59.2c21.6-25.6,43.6-57.1,75.2-70.8c-15.7,11.6-33.5,33.6-12.8,49.8
		c16.8,18.3,39.3,0.2,48.8-16.8c-1.4,18-18.2,33.7-29.8,48.2c-5.8,11.3-16.2,9-24.2,1.8c-1.5,5.4,7.3,8.9,12,9
		c-3.6,10.4-14.2,1.1-20-1c-0.1,5.4,6.9,7.2,11,8c-2.7,9.8-13.1,2.2-19,1c-0.9,6.7,8.1,5.1,12,8c-5,12-18.4-4.3-22,2
		c4.7,1.8,8.9,5.5,14,6c-2.5,9.4-15,3.5-19-1c-5.8,6,8,7.6,12,9c-1.5,10.3-16.2,4.2-20,0c-1.8,7.3,9.3,7.1,14,9c-0.3,3.9-4,7.3-8,7
		c7.8,2.9-4.7,7.6-2,12c-10.1-0.2-20.4-1.3-28-8c2.7,9.5,18,9.1,27,10c-3.5,13-5.6,28.7-18.9,36.1c-11.6,9.1-26.3,11.8-40.1,11.9
		c22,4.8,45.1-7.1,57-25c-3.5,26.1-40.5,43-63,32c7.1,11,26.1,4.8,36.9,0.9c10.1-4.7,22.8-11,25.1-22.9c4.3,13-10.6,23.3-20.3,29.7
		c-11.3,7.7-26.3,9.3-38.7,10.3c23.1,4.8,44-8.4,60-24c-9.8,24.2-39.4,38.9-64,34c21.2,11.8,46.6-6.8,63-22
		c-10.3,26-43.7,36.9-69,35c23.3,6.5,48.9-4.8,65-21c-9.5,23.7-38.7,32.3-62,33c20.1,5,38.2-4.9,54-15c-12,17.9-32,27.2-53,27
		c24.3,6.4,48.5-11.5,58-33c-4,11.1-7.7,23.5-18,31c1.6-4.7,6.9-8,8-13c-22,28-59.5,44.8-94,34c-15.9,23.2-31.4,47-44,72
		c14.2-12.2,20.4-32.4,31.2-47.8c6.7-5.5,8-21.6,18.7-18.2c11.4,4.1,23.4,0.8,35,0c-18.9,26-36,53.3-50,82
		c19.5-23.9,30.6-53.6,50.1-77.9c11.8-9.7,29.2-11.1,39.9-24.1c-2.1,8.7-10.3,14.3-13.1,22.9c-14.6,26-16.1,56-23.9,84.1
		c-0.7,16.1,7.4-6.1,8-12c7-36.5,17-73.2,41.7-102.3c27-32.6,24-76.8,26.5-117.5c18.7-49,81.4-71.5,90.8-125.2
		c3.6-7.6,15.3-8.5,18.7-17.3c7.4-10.8-1.6-20.8-13.6-17.8c-38.5-8.2-80.8,0.2-113.1,22.1c12.3-10.2,13.9-33.1,32.9-32.1
		c16.4-3.6,32.2-9.7,46.9-18.1c18.7-1.6,39,0.9,55.1-9.9c14.4-4.4,26.8-33.6,5.1-35.9c-56.3-3.8-114.7-0.3-163,28
		c7-14.3,16.5-29.4,33.8-31.2c14.9-5.8,28.9-13.9,42.5-22.5c11.7-14.2,30.5-11.5,45.7-18.3c14.1-5.8,28.3-15.2,35.8-29.2
		c9.5-16.1-2.7-41.7-23.7-32.7C330,422.7,263.7,438.1,216.2,486.6 M288.2,315.6c-2.1,12.7-16.3,21.7-27,27
		C268.2,332,279.1,324.2,288.2,315.6 M398.2,406.6c-6.2,6.9-19.7,11.1-29,9C378.8,412.4,388.6,409.9,398.2,406.6 M412.2,421.6
		c-6.3,0.2-13.1-5.4-19-2c6,2.7,12.5,3.7,19,5c-1,8.6-6.7,19-15,22c-9.2-3.6-19.7-3.9-28-10c3.1,9.3,18.5,10,28,11
		c-8.9,12.9-26.8-0.2-38-4c3.5,9.3,18,8.9,26,12c-11.2,9-25.9-2.4-37-7c5.7,8.6,16.4,10.4,25,13c-11.8,7.4-23.9-3.4-34-9
		c3.4,7,10.8,11.4,18,13c-11.4,5.4-20.1-7-29-11c1.7,6.7,9.2,11.7,15,15c-9,5.5-17.8-7.5-23-14c-2.8,9.1,12.2,13.5,15,21
		c-7.8,5.2-13.5-6.5-20-10c0,6.1,9.1,10,14,13c-7.1,9.4-14.4-3.5-20-8c2.6,5,6.6,10.5,12,13c-2.4,3.7-6.6,4.4-10,2c3.8,3,0,4.9-3,6
		c-5.9-3.8-10.8-10.7-17-14c2.6,6.2,9.1,10.7,15,14c-9.5,10.8-17.8-8.6-26-11c3.5,7.1,10.5,11.7,17,16c-9.4,5.9-18-8.6-25-13
		c0.6,8.5,11.7,11.5,17,17c-12.3,6.6-18.9-10.3-28-14c3,8.4,11.7,13,18,18c-10.6,1.2-17.4-7.4-24-14c-5.7,9,20.3,15.6,9.3,20.7
		c-7.9-5.1-14.4-12.9-22.3-17.7c3.2,5.7,8.7,9.9,13.2,14.8c7.2,1.4,11.8,13.4,1.1,8.9c-11.3-6.6-19.7-18.4-30.3-25.7
		c3.5,6.7,10.2,11.2,15.2,16.8c3.4,7.4,16.4,8,16,15.5c-15.6,0.2-25-18.6-38.2-25.2c3.5,8.1,11.5,12.2,16.8,19.2
		c4.8,6.5,21.8,6.7,16.2,16.8c-12.7-6.4-24.4-14.2-35-24c1.1,8.6,10.9,12.2,16.8,17.2c5.4,4.7,22,5.8,15.2,15.8
		c-12.4-4.6-23.1-13.3-34-20c7.6,10.5,20.5,17.7,33,21c0.6,12.3-12.2,2.5-17.7-0.3c-6.9-2.3-12.8-10.1-19.3-10.7
		c5.7-14.2,0.9-32,10.3-44.7c27.5-32.2,68.8-45.3,105.8-61.2c15-6.3,31.6-7.1,48-8C387.5,422.1,409.5,400.5,412.2,421.6
		 M424.2,527.6c-3.8-2.5-9.3-2.5-14-3c4.7-2,10.5-3.5,16-4c0.4,5.8-1.9,11-6,15c-9.6-2.5-19.2-5.2-28-10c4.9,8.8,18,8,26,12
		c-12,8.5-27-4-38-10c5.1,10.2,17.6,13.3,28,15c-10.7,10-27.7-5.3-37-12c2.7,10.2,15.6,11.4,22,18c-13.6,2.6-23.4-8.4-32-16
		c2.7,7.8,11.1,11.8,16,18c-11.6,0.8-18.2-10.9-27-16c3.5,5.8,7.8,11.7,14,15c-9.7,2.8-16.1-10.1-22-16c-1.6,7.6,8,13,12,19
		c-9.8,4.2-14.8-10.2-21-14c0.6,7.9,8.7,13.3,15,17c-10.7,7.8-16.2-10.5-24-13c2.2,7.5,11.3,12,15,18c-11.6,4.5-16.8-10.8-25-15
		c2.6,7.6,9.5,11.9,15,17c-11,5.3-16.2-11.5-25-15c2.6,6.8,10.3,13.2,17,17c-1.6,3.4-6.2,1.3-9,3c-5-5.7-12.6-11.3-17-18
		c-0.3,7.5,9.6,13.5,15,18c-9.2,3.2-16.3-8.4-23-13c1.7,6.7,9.2,11.7,15,15c-10.6,6.5-17.8-10-26-15c2.5,8.5,9.6,17.2,18,21
		c0,2.4-2.5,3.7-3,6c-11.6-8.7-21.2-22.1-31-32c3.6,7.9,10.5,14.2,15.8,21.2c4.1,7,19.9,10.3,10.2,18.8c-12.4-8.8-20.7-21.5-31-31
		c7.8,12.2,17.8,24.2,30,32c-0.1,3.7-4.1,5.6-5,9c-15.7-4.2-25.5-17.1-37-28c6.8,14.1,21.9,23.7,36,30c-1.1,2.3-2,4.5-4,6
		c-7.8-6.1-17.4-9.2-24.2-16.8c-5.8-6.7-20.3-14.6-7.5-22c8.3-19,22.5-35.9,44-40c33.2-8.6,70.5-24.1,104.9-9.3
		C402.6,522.8,413.6,528,424.2,527.6 M423.2,515.6c-9.3,7.8-22.4,3.1-32-1C400.8,513.3,414.1,512.2,423.2,515.6 M245.2,554.6
		c-1.1,2-2,4-3,6c-7.2-2.1-14.3-5.2-20.8-9.2c-6.5-3.2-17-6.7-11.2-15.8C220.5,544.6,232.5,550.6,245.2,554.6 M240.2,561.6
		c-1.6,11.3-12.9,4-19.1,1.1c-6.3-3.6-19-7.3-13.9-17.1C216.5,552.9,228,560.4,240.2,561.6 M234.2,570.6c-9.3,8.6-26.6-3.6-29-14
		C213.9,563.2,224.2,567.9,234.2,570.6 M237.2,578.6c7.3,13.8,22.5,22.2,35,30c-5,8.2-16.8-4.4-23.2-7.8
		C241.8,597.3,230.3,584.8,237.2,578.6 M402.2,587.6c5.6,9.4-3.3,19.8-13,22c-1-9.5-5.7-21-16-23
		C382.3,583.7,392.6,588.1,402.2,587.6 M365.2,587.6c11,5.7,22.1,22.6,11.2,33.2c-8.2,8.5-17.6,24.5-30.9,20.4
		c-11.8-4.2-24.3-21.2-12.6-31.9C343,601.1,350.1,585.2,365.2,587.6 M332.2,589.6c-7.2,5.5-16.1,10-22,17c-2.7-1.1-3.8-5-7-5
		c3,3.8,7.2,7,2,11c-1.5-2.2-3.9-4.4-7-4c0.2,3,4.4,4.4,3,8c-2.1,1.6-3.7-0.6-5,2c-1.8-2.5-2.1-6.4-5-8c0.5,5.6,6.3,9.5,2,15
		c-4.4-2.2-5.5-7.4-9-10c0.6,5.6,9.7,10.4,4,16c-4.5-3.3-5.1-10-10-13c-0.7,7,9.5,11.2,6,18c-5.5-2-6.6-10.2-12-12
		c0.1,7.1,12.3,11.6,6,19c-7.8-6.5-13.8-18.4-2.9-24.9C291.7,604,309.9,591,332.2,589.6 M264.2,615.6c-10.9,1.5-21-9.4-25-19
		C247.2,603.5,257,608,264.2,615.6z"/>
</g>
<g>
	<path class="st0" d="M642.2,330.6c-13.9-0.4-25.1,8.3-37.8,12.2c-35.4,14.6-71.9,26.2-108,39c-9.3,6.5-27.9,5.6-31.5,16
		c17.8,15.6,53,13.6,56.3,41.7c4.4,9.3,2.4,35.6,18.9,24.9c10.3-4.9,18.7-17.5,30.4-17.2c11.2,5.1,21.3,11.5,32.5,16.5
		c8.5,5.4,27.2,19,27.2-0.2C633.6,419.3,640,374.4,642.2,330.6 M619.2,341.6c-33.1,27.5-68.7,52.7-105,75c-13.6-6.7-27.3-13-41-19
		C519.7,374.9,572.4,364.7,619.2,341.6 M636.2,342.6c-5.8,41.4-6.1,84.3-14,125c-24.2-13.1-49-24.6-73-38
		c12.9-15,28.1-30.2,43.2-43.8C607.7,371.8,620.4,354.9,636.2,342.6 M616.2,354.6c-21.2,19.8-41.3,41.8-62.1,61.9
		c-15,9.1-13.6,27.8-19.9,42.1c-7.9-9.9-8.4-26.2-15-38C552.5,400.1,582.4,373.8,616.2,354.6 M562.2,442.6c-3.5,6.3-12.6,7.9-18,13
		c-0.4-7.3,1.4-14,2-21C552,436,556.6,440.8,562.2,442.6z"/>
</g>
<g>
	<path class="st0" d="M677.2,369.6c-4.5-0.9-7.9,6.2-3,8C680,379.3,682,371.7,677.2,369.6z"/>
</g>
<g>
	<path class="st0" d="M534.2,421.6c-6.5,5.2-2.1,19.5-1,27C532.7,439.4,533.8,430.6,534.2,421.6z"/>
</g>
<g>
	<path class="st0" d="M408.2,432.6c-6.4-4.7-15.3-5.1-23-7C391,430.7,401.2,433.6,408.2,432.6z"/>
</g>
<g>
	<path class="st0" d="M402.2,439.6c-8.4-3.4-17.4-4.8-25-10C380.9,436.9,394.2,441.9,402.2,439.6z"/>
</g>
<g>
	<path class="st0" d="M460.2,452.6c-4.6,0.3-6.1,6.6-1.7,8.7C463.5,462.7,464.9,453.8,460.2,452.6z"/>
</g>
<g>
	<path class="st0" d="M680.2,478.6c-33.4,9.5-65.4,24.6-97.9,37.1c-5.8,2.1-22.9,10.1-8.2,12c7.5,3.6,18.1,4.1,23.1,10.9
		c3.4,7.7,3.6,19.1,9.9,24c6.8-3.5,13.4-8.7,19-14c9.4,2.7,17.5,8.8,25.2,14.8c11.8,10,12-12.3,13.8-19.7
		C670,521.9,676.4,500.6,680.2,478.6 M674.2,489.6c-7.7,22.8-11.4,46.8-18,70c-12-6.8-23.5-16.1-37-20c6.6-10.4,17.8-16.9,26.2-25.8
		C655.7,506.9,662.7,493.7,674.2,489.6 M656.2,490.6c-16,12.9-34.3,22.6-50.2,35.8c-8.9,10.8-20.3-1.6-30.8-2.8
		C600.9,510.8,629.2,501.1,656.2,490.6 M659.2,495.6c-16.4,20.4-47.3,31-51,59c-6.1-7.3-11.1-21.5,1.2-25.8
		C625.1,516.3,642.2,505.6,659.2,495.6 M623.2,545.6c-2.7,3.8-7.4,5.2-10,9c0.9-4.1,1.5-8.3,4-12
		C619.6,542.7,620.9,545.1,623.2,545.6z"/>
</g>
<g>
	<path class="st0" d="M526.2,485.6c-9.1,1.3-17.2,7.4-25.3,11.7c-16,7.5-32.2,14.8-46.5,25.5c-13.5,5.8-2.6,15.6,7.5,15
		c6.4,5.3,4.8,20.9,13.5,21c7-7.4,12.1-15.5,23.8-12.2C506.5,525.7,519.6,506.8,526.2,485.6 M519.2,494.6c-6.8,16.2-16.9,31.4-23,48
		c-6.1,0.5-11.8-0.4-17-3C491.4,524,504.6,507.8,519.2,494.6 M508.2,497.6c-7.8,11.6-16.6,23.3-27.2,33.8c-8.9,4.7-7.4,14-7.8,21.2
		c-10.8-10.2-3.4-21.8,8.2-26.8c9-6.8,16.2-15.9,22.8-24.2c-9.6,3.6-16.1,12.8-24.8,18.2c-7.6,7.2-16.3,18.8-27.2,10.8
		C467.6,514.6,489.1,507.3,508.2,497.6 M484.2,546.6c-1.5,2-3.3,4.9-6,5C476.7,547,480.1,543.6,484.2,546.6z"/>
</g>
<g>
	<path class="st0" d="M281.2,595.6c-10.8-7.4-20.4-20.6-31-28C258.3,578.4,269.1,589.1,281.2,595.6z"/>
</g>
<g>
	<path class="st0" d="M207.2,648.6c6.5-12.9,4.1-28.5,3.3-42.3c-2.2-12.4-1-29.2-12.3-36.7C210.8,593.4,209.6,623.3,207.2,648.6z"/>
</g>
<g>
	<path class="st0" d="M194.2,574.6c-3.3,4.9,3.5,13,2.2,19.8c3.9,14.9,0.8,33,0.8,47.2C205.6,621.4,200.4,595.1,194.2,574.6z"/>
</g>
<g>
	<path class="st0" d="M508.2,587.6c-4.9-1.6-6.5,4.3-2.2,6.2C509.9,596.7,511.5,589.5,508.2,587.6z"/>
</g>
<g>
	<path class="st0" d="M602.2,591.6c-3.6-0.2-6.7,6.3-2.2,7.2C603.9,600.6,606.2,593,602.2,591.6z"/>
</g>
<g>
	<path class="st0" d="M400.2,598.6c-3.2-1-8.8-0.8-12,0C391.3,601.4,396.8,601.2,400.2,598.6z"/>
</g>
<g>
	<path class="st0" d="M188.2,627.6c1.2-8.5,2.8-21-1-29C186.5,608.2,186.2,618.4,188.2,627.6z"/>
</g>
<g>
	<path class="st0" d="M431.2,691.6c8.7,1.4,9.8-15.1,18.9-9.9c8.4,5.8,15.2,0.6,16.8-8.4c6.4-14.4,12-29.1,17-44
		c6.9-11-4.1-9.8-10.5-4.5c-20.8,9.8-41.5,19.5-62,30c-4.6,4.6-16.1,5.4-16.5,12c8.3,3.7,18.2,1.9,27.1,3.9
		C428.7,675.3,428.5,684.8,431.2,691.6 M478.2,632.6c-5.5,16-12.2,32.8-21.1,46.9c-6.1-2-23-4.2-12.7-12.7
		C455.8,655.8,465.2,641.6,478.2,632.6 M464.2,633.6c-18.8,12.3-36,41.5-61,30C422.8,652.2,443.7,642.5,464.2,633.6 M465.2,638.6
		c-4.3,7.7-12.8,13.4-18.8,20.2c-7.9,7.4-16.6,12.8-12.2,24.8c-9.9-8.7-4.7-21.2,6.8-25.2C449.3,652.3,457.6,645.9,465.2,638.6z"/>
</g>
<g>
	<path class="st0" d="M178.2,630.6c-2.6-3.5-6.7-6.3-11-7C168.3,628.3,174.8,628.4,178.2,630.6z"/>
</g>
<g>
	<path class="st0" d="M252.2,637.6c-2.6,3.3-0.8,9.8,4,10C254.4,644.7,252.6,641.5,252.2,637.6z"/>
</g>
<g>
	<path class="st0" d="M246.2,673.6c2.8-6.6,6.8-15.2,5-22C247.6,657.3,246.5,667.1,246.2,673.6z"/>
</g>
<g>
	<path class="st0" d="M307.2,679.6c-8-7.7-14.8-18.3-22-26C286,664.7,295.4,680,307.2,679.6z"/>
</g>
<g>
	<path class="st0" d="M352.2,667.6c0.2-4.9-5.4-7.2-9-9C343.5,663.7,348.9,664.8,352.2,667.6z"/>
</g>
<g>
	<path class="st0" d="M346.2,674.6c-2-4-8-6.8-11-10C333.5,671.5,341.5,673.4,346.2,674.6z"/>
</g>
<g>
	<path class="st0" d="M537.2,668.6c-4.5-1.2-7.3,6.2-3,8C539,677.5,540.8,671.2,537.2,668.6z"/>
</g>
<g>
	<path class="st0" d="M379.2,749.6c18.1-8,29.2-26.3,41.7-41.3c12.2-14.4-12.7-8.8-20.5-6.5c-18,8.3-37.9,15.8-53.2,28.8
		c7.9,1.1,15.8,1.9,23.9,2.1C377.2,735.4,376.6,744.1,379.2,749.6 M410.2,703.6c-6.2,4.3-13.1,8.7-20,12c6,3.2-8.2,6.9-10.2,11.8
		c-7.6,3.1-16.7,2.6-24.8,1.2C372.7,719.3,390,706.4,410.2,703.6 M419.2,704.6c-10.9,13.4-20.8,29.3-36,38
		C382.8,723.5,405.2,712.7,419.2,704.6 M380.2,741.6c0-4.1-4.1-8.5,0-12C381.8,732.6,381.9,738.8,380.2,741.6z"/>
</g>
<g>
	<path class="st0" d="M191.2,706.6c-8.4,1.3-17.5-2.1-25,0C173.8,708,183.9,709,191.2,706.6z"/>
</g>
<g>
	<path class="st0" d="M179.2,716.6c-2.5,0.4-8.1-1.4-7,3C174.7,719.3,180.3,721.1,179.2,716.6z"/>
</g>
<g>
	<path class="st0" d="M455.2,718.6c-4.7-2.1-7.3,5.6-2.7,6.7C457.3,727.5,458.6,720.9,455.2,718.6z"/>
</g>
<g>
	<path class="st0" d="M286.2,731.6c-4.9,1.8-8-6.6-11.6-3.7C274.9,732.2,283.4,733,286.2,731.6z"/>
</g>
<g>
	<path class="st0" d="M288.2,747.6c-6.4,3.1-13.3,3.7-19.9,0.9c-5.8,0.8-11.3-11.8-14.1-4.9C264.1,748.6,278.8,758.2,288.2,747.6z"
		/>
</g>
<g>
	<path class="st0" d="M255.2,754.6c-1.7-2.1-4.3-4.3-7-5C246.8,753.7,252.1,757.2,255.2,754.6z"/>
</g>
<g>
	<path class="st0" d="M451.2,753.6c-3.8-1.7-10,3.3-5.1,6.1C449.6,762.2,454.5,757,451.2,753.6z"/>
</g>
<g>
	<path class="st0" d="M268.2,757.6c-2.3-1.2-6.4-2.7-9-1C260.9,760.3,265.5,759.9,268.2,757.6z"/>
</g>
<g>
	<path class="st0" d="M262.2,766.6c-3.1,0.6-5-2.6-8-2C253.1,769.1,260.4,768.1,262.2,766.6z"/>
</g>
<g>
	<path class="st0" d="M497.2,764.6c-3.7-0.2-5.5,5.2-1.7,6.7C499.8,773.1,500.5,765.6,497.2,764.6z"/>
</g>
<g>
	<path class="st0" d="M359.2,781.6c-4.5-1.2-6.7,6.3-2.2,7.2C361,791.2,363.1,782.8,359.2,781.6z"/>
</g>
<g>
	<path class="st0" d="M127.2,830.6c-14.5,25.7-26.4,54-43,79c14.3-13.6,23.1-34.2,30.7-52.3C118.3,848.3,127.7,839.7,127.2,830.6z"
		/>
</g>
<g>
	<path class="st0" d="M371.2,840.6c-5.2-1.7-8.6,5-3.7,7.7C372,849.8,375.2,843.4,371.2,840.6z"/>
</g>
<g>
	<path class="st0" d="M134.2,842.6c-3.2,1-4.5,4.2-6,7C131.5,849.3,133.8,845.6,134.2,842.6z"/>
</g>
<g>
	<path class="st0" d="M142.2,851.6c-11.9,7-16.1,23.7-26.1,33.9c-8.6,11.6-17.6,24.1-22.9,37.1c8.3-3.8,9.9-16.7,16.2-23.8
		C120.5,883.2,132,867.1,142.2,851.6z"/>
</g>
<g>
	<path class="st0" d="M165.2,860.6c-2.7-0.3-3.7,3-4,5C163.9,865.9,164.9,862.7,165.2,860.6z"/>
</g>
<g>
	<path class="st0" d="M150.2,861.6c-11.8,9.2-18.1,24.8-27.3,36.8c-6.9,13.2-21.4,25.8-21.8,40.2
		C115.7,911.9,135.1,887.7,150.2,861.6z"/>
</g>
<g>
	<path class="st0" d="M239.2,871.6c-10.1,0.1-22.6,5.5-33,8C217.9,879.3,228.2,874.3,239.2,871.6z"/>
</g>
<g>
	<path class="st0" d="M156.2,871.6c-17.4,22.4-33.2,49-46,73c10.7-10.2,16.5-24.2,24.8-36.2C141.5,896.1,153,884.4,156.2,871.6z"/>
</g>
<g>
	<path class="st0" d="M168.2,878.6c-12.1,7.9-17.5,24.1-26.2,35.8c-7.5,12.8-16.3,25-22.8,38.2C138.8,931.1,152.2,903.1,168.2,878.6
		z"/>
</g>
<g>
	<path class="st0" d="M235.2,886.6c-15.9,10.4-21.9,29.4-31.2,44.8c-8.3,15.8-20.2,31.9-24.8,48.2
		C198.8,950.6,212.4,914,235.2,886.6z"/>
</g>
<g>
	<path class="st0" d="M241.2,891.6c-21.8,25-32.3,59.5-50,88c7.5,0,8.8-13.9,13.2-19.8C217.5,937.5,227.3,913.3,241.2,891.6z"/>
</g>
<g>
	<path class="st0" d="M189.2,892.6c-12.4,6.8-16.9,22.7-25.2,33.8c-7.8,11.8-15.1,24-21.8,36.2c11.5-7.1,16-23.5,24.7-34.3
		C173.8,916.1,180.6,903.8,189.2,892.6z"/>
</g>
<g>
	<path class="st0" d="M202.2,893.6c-19,20.6-32.1,47.6-46,72C174.3,944.7,186.4,916.9,202.2,893.6z"/>
</g>
<g>
	<path class="st0" d="M225.2,939.6c-8.9,12.2-12.8,27.6-20,41C217.1,971.2,218.1,952.7,225.2,939.6z"/>
</g>
</svg>
